<mxfile host="65bd71144e">
    <diagram id="V_RympL0s063lY_3v7iM" name="Page-1">
        <mxGraphModel dx="1880" dy="1565" grid="1" gridSize="10" guides="1" tooltips="1" connect="1" arrows="1" fold="1" page="1" pageScale="1" pageWidth="850" pageHeight="1100" math="0" shadow="0">
            <root>
                <mxCell id="0"/>
                <mxCell id="1" parent="0"/>
                <mxCell id="21" value="" style="group" vertex="1" connectable="0" parent="1">
                    <mxGeometry x="23" y="60" width="805" height="200" as="geometry"/>
                </mxCell>
                <mxCell id="2" value="" style="rounded=0;whiteSpace=wrap;html=1;fillColor=default;" vertex="1" parent="21">
                    <mxGeometry width="805" height="200" as="geometry"/>
                </mxCell>
                <mxCell id="3" value="AbstractArgs" style="rounded=0;whiteSpace=wrap;html=1;fillColor=none;" vertex="1" parent="21">
                    <mxGeometry x="20" y="50" width="90" height="30" as="geometry"/>
                </mxCell>
                <mxCell id="4" value="DeviceArgs{T1, T2}" style="rounded=0;whiteSpace=wrap;html=1;fillColor=none;" vertex="1" parent="21">
                    <mxGeometry x="140" y="50" width="110" height="30" as="geometry"/>
                </mxCell>
                <mxCell id="8" style="edgeStyle=none;html=1;exitX=1;exitY=0.5;exitDx=0;exitDy=0;entryX=0;entryY=0.5;entryDx=0;entryDy=0;" edge="1" parent="21" source="3" target="4">
                    <mxGeometry relative="1" as="geometry"/>
                </mxCell>
                <mxCell id="5" value="DeviceArgs2D{T1, T2}" style="rounded=0;whiteSpace=wrap;html=1;fillColor=none;" vertex="1" parent="21">
                    <mxGeometry x="280" y="20" width="130" height="30" as="geometry"/>
                </mxCell>
                <mxCell id="9" style="edgeStyle=none;html=1;exitX=1;exitY=0.5;exitDx=0;exitDy=0;entryX=0;entryY=0.5;entryDx=0;entryDy=0;" edge="1" parent="21" source="4" target="5">
                    <mxGeometry relative="1" as="geometry"/>
                </mxCell>
                <mxCell id="6" value="DeviceArgs3D{T1, T2}" style="rounded=0;whiteSpace=wrap;html=1;fillColor=none;" vertex="1" parent="21">
                    <mxGeometry x="280" y="80" width="130" height="30" as="geometry"/>
                </mxCell>
                <mxCell id="10" style="edgeStyle=none;html=1;exitX=1;exitY=0.5;exitDx=0;exitDy=0;entryX=0;entryY=0.5;entryDx=0;entryDy=0;" edge="1" parent="21" source="4" target="6">
                    <mxGeometry relative="1" as="geometry"/>
                </mxCell>
                <mxCell id="82" style="edgeStyle=none;html=1;exitX=1;exitY=0.5;exitDx=0;exitDy=0;entryX=0.5;entryY=1;entryDx=0;entryDy=0;" edge="1" parent="21" source="7" target="11">
                    <mxGeometry relative="1" as="geometry"/>
                </mxCell>
                <mxCell id="83" style="edgeStyle=none;html=1;exitX=1;exitY=0.5;exitDx=0;exitDy=0;entryX=0.5;entryY=1;entryDx=0;entryDy=0;" edge="1" parent="21" source="7" target="12">
                    <mxGeometry relative="1" as="geometry"/>
                </mxCell>
                <mxCell id="7" value="UserArgsExtra" style="rounded=0;whiteSpace=wrap;html=1;fillColor=none;" vertex="1" parent="21">
                    <mxGeometry x="20" y="155" width="100" height="30" as="geometry"/>
                </mxCell>
                <mxCell id="11" value="Args2D{T1, T2}" style="rounded=0;whiteSpace=wrap;html=1;fillColor=none;" vertex="1" parent="21">
                    <mxGeometry x="440" y="20" width="100" height="30" as="geometry"/>
                </mxCell>
                <mxCell id="13" style="edgeStyle=none;html=1;exitX=1;exitY=0.5;exitDx=0;exitDy=0;entryX=0;entryY=0.5;entryDx=0;entryDy=0;" edge="1" parent="21" source="5" target="11">
                    <mxGeometry relative="1" as="geometry"/>
                </mxCell>
                <mxCell id="12" value="Args3D{T1, T2}" style="rounded=0;whiteSpace=wrap;html=1;fillColor=none;" vertex="1" parent="21">
                    <mxGeometry x="440" y="80" width="100" height="30" as="geometry"/>
                </mxCell>
                <mxCell id="14" style="edgeStyle=none;html=1;exitX=1;exitY=0.5;exitDx=0;exitDy=0;entryX=0;entryY=0.5;entryDx=0;entryDy=0;" edge="1" parent="21" source="6" target="12">
                    <mxGeometry relative="1" as="geometry"/>
                </mxCell>
                <mxCell id="17" style="edgeStyle=none;html=1;exitX=0;exitY=0.5;exitDx=0;exitDy=0;entryX=1;entryY=0.5;entryDx=0;entryDy=0;" edge="1" parent="21" source="15" target="11">
                    <mxGeometry relative="1" as="geometry"/>
                </mxCell>
                <mxCell id="15" value="UserArgs2D" style="rounded=0;whiteSpace=wrap;html=1;fillColor=#60a917;fontColor=#ffffff;strokeColor=#2D7600;" vertex="1" parent="21">
                    <mxGeometry x="640" y="20" width="80" height="30" as="geometry"/>
                </mxCell>
                <mxCell id="18" style="edgeStyle=none;html=1;exitX=0;exitY=0.5;exitDx=0;exitDy=0;entryX=1;entryY=0.5;entryDx=0;entryDy=0;" edge="1" parent="21" source="16" target="12">
                    <mxGeometry relative="1" as="geometry"/>
                </mxCell>
                <mxCell id="16" value="UserArgs3D" style="rounded=0;whiteSpace=wrap;html=1;fillColor=#60a917;fontColor=#ffffff;strokeColor=#2D7600;" vertex="1" parent="21">
                    <mxGeometry x="640" y="80" width="80" height="30" as="geometry"/>
                </mxCell>
                <mxCell id="22" value="" style="group" vertex="1" connectable="0" parent="1">
                    <mxGeometry x="23" y="280" width="805" height="200" as="geometry"/>
                </mxCell>
                <mxCell id="23" value="" style="rounded=0;whiteSpace=wrap;html=1;fillColor=default;" vertex="1" parent="22">
                    <mxGeometry width="805" height="200" as="geometry"/>
                </mxCell>
                <mxCell id="24" value="AbstractGrid" style="rounded=0;whiteSpace=wrap;html=1;fillColor=none;" vertex="1" parent="22">
                    <mxGeometry x="20" y="50" width="90" height="30" as="geometry"/>
                </mxCell>
                <mxCell id="25" value="DeviceGrid{T1, T2}" style="rounded=0;whiteSpace=wrap;html=1;fillColor=none;" vertex="1" parent="22">
                    <mxGeometry x="140" y="50" width="110" height="30" as="geometry"/>
                </mxCell>
                <mxCell id="26" style="edgeStyle=none;html=1;exitX=1;exitY=0.5;exitDx=0;exitDy=0;entryX=0;entryY=0.5;entryDx=0;entryDy=0;" edge="1" parent="22" source="24" target="25">
                    <mxGeometry relative="1" as="geometry"/>
                </mxCell>
                <mxCell id="27" value="DeviceGrid2D{T1, T2}" style="rounded=0;whiteSpace=wrap;html=1;fillColor=none;" vertex="1" parent="22">
                    <mxGeometry x="280" y="20" width="130" height="30" as="geometry"/>
                </mxCell>
                <mxCell id="28" style="edgeStyle=none;html=1;exitX=1;exitY=0.5;exitDx=0;exitDy=0;entryX=0;entryY=0.5;entryDx=0;entryDy=0;" edge="1" parent="22" source="25" target="27">
                    <mxGeometry relative="1" as="geometry"/>
                </mxCell>
                <mxCell id="29" value="DeviceGrid3D{T1, T2}" style="rounded=0;whiteSpace=wrap;html=1;fillColor=none;" vertex="1" parent="22">
                    <mxGeometry x="280" y="80" width="130" height="30" as="geometry"/>
                </mxCell>
                <mxCell id="30" style="edgeStyle=none;html=1;exitX=1;exitY=0.5;exitDx=0;exitDy=0;entryX=0;entryY=0.5;entryDx=0;entryDy=0;" edge="1" parent="22" source="25" target="29">
                    <mxGeometry relative="1" as="geometry"/>
                </mxCell>
                <mxCell id="80" style="edgeStyle=none;html=1;exitX=1;exitY=0.5;exitDx=0;exitDy=0;entryX=0.5;entryY=1;entryDx=0;entryDy=0;" edge="1" parent="22" source="31" target="32">
                    <mxGeometry relative="1" as="geometry"/>
                </mxCell>
                <mxCell id="81" style="edgeStyle=none;html=1;exitX=1;exitY=0.5;exitDx=0;exitDy=0;entryX=0.5;entryY=1;entryDx=0;entryDy=0;" edge="1" parent="22" source="31" target="34">
                    <mxGeometry relative="1" as="geometry"/>
                </mxCell>
                <mxCell id="31" value="UserGridExtra" style="rounded=0;whiteSpace=wrap;html=1;fillColor=none;" vertex="1" parent="22">
                    <mxGeometry x="20" y="155" width="100" height="30" as="geometry"/>
                </mxCell>
                <mxCell id="32" value="Grid2D{T1, T2}" style="rounded=0;whiteSpace=wrap;html=1;fillColor=none;" vertex="1" parent="22">
                    <mxGeometry x="440" y="20" width="100" height="30" as="geometry"/>
                </mxCell>
                <mxCell id="33" style="edgeStyle=none;html=1;exitX=1;exitY=0.5;exitDx=0;exitDy=0;entryX=0;entryY=0.5;entryDx=0;entryDy=0;" edge="1" parent="22" source="27" target="32">
                    <mxGeometry relative="1" as="geometry"/>
                </mxCell>
                <mxCell id="34" value="Grid3D{T1, T2}" style="rounded=0;whiteSpace=wrap;html=1;fillColor=none;" vertex="1" parent="22">
                    <mxGeometry x="440" y="80" width="100" height="30" as="geometry"/>
                </mxCell>
                <mxCell id="35" style="edgeStyle=none;html=1;exitX=1;exitY=0.5;exitDx=0;exitDy=0;entryX=0;entryY=0.5;entryDx=0;entryDy=0;" edge="1" parent="22" source="29" target="34">
                    <mxGeometry relative="1" as="geometry"/>
                </mxCell>
                <mxCell id="36" style="edgeStyle=none;html=1;exitX=0;exitY=0.5;exitDx=0;exitDy=0;entryX=1;entryY=0.5;entryDx=0;entryDy=0;" edge="1" parent="22" source="37" target="32">
                    <mxGeometry relative="1" as="geometry"/>
                </mxCell>
                <mxCell id="37" value="UserGrid2D" style="rounded=0;whiteSpace=wrap;html=1;fillColor=#60a917;fontColor=#ffffff;strokeColor=#2D7600;" vertex="1" parent="22">
                    <mxGeometry x="640" y="20" width="80" height="30" as="geometry"/>
                </mxCell>
                <mxCell id="38" style="edgeStyle=none;html=1;exitX=0;exitY=0.5;exitDx=0;exitDy=0;entryX=1;entryY=0.5;entryDx=0;entryDy=0;" edge="1" parent="22" source="39" target="34">
                    <mxGeometry relative="1" as="geometry"/>
                </mxCell>
                <mxCell id="39" value="UserGrid3D" style="rounded=0;whiteSpace=wrap;html=1;fillColor=#60a917;fontColor=#ffffff;strokeColor=#2D7600;" vertex="1" parent="22">
                    <mxGeometry x="640" y="80" width="80" height="30" as="geometry"/>
                </mxCell>
                <mxCell id="40" value="" style="group" vertex="1" connectable="0" parent="1">
                    <mxGeometry x="23" y="500" width="805" height="200" as="geometry"/>
                </mxCell>
                <mxCell id="41" value="" style="rounded=0;whiteSpace=wrap;html=1;fillColor=default;" vertex="1" parent="40">
                    <mxGeometry width="805" height="200" as="geometry"/>
                </mxCell>
                <mxCell id="42" value="AbstractParticle" style="rounded=0;whiteSpace=wrap;html=1;fillColor=none;" vertex="1" parent="40">
                    <mxGeometry x="20" y="50" width="90" height="30" as="geometry"/>
                </mxCell>
                <mxCell id="43" value="DeviceParticle{T1, T2}" style="rounded=0;whiteSpace=wrap;html=1;fillColor=none;" vertex="1" parent="40">
                    <mxGeometry x="140" y="50" width="130" height="30" as="geometry"/>
                </mxCell>
                <mxCell id="44" style="edgeStyle=none;html=1;exitX=1;exitY=0.5;exitDx=0;exitDy=0;entryX=0;entryY=0.5;entryDx=0;entryDy=0;" edge="1" parent="40" source="42" target="43">
                    <mxGeometry relative="1" as="geometry"/>
                </mxCell>
                <mxCell id="45" value="DeviceParticle2D{T1, T2}" style="rounded=0;whiteSpace=wrap;html=1;fillColor=none;" vertex="1" parent="40">
                    <mxGeometry x="300" y="20" width="150" height="30" as="geometry"/>
                </mxCell>
                <mxCell id="46" style="edgeStyle=none;html=1;exitX=1;exitY=0.5;exitDx=0;exitDy=0;entryX=0;entryY=0.5;entryDx=0;entryDy=0;" edge="1" parent="40" source="43" target="45">
                    <mxGeometry relative="1" as="geometry"/>
                </mxCell>
                <mxCell id="47" value="DeviceParticle3D{T1, T2}" style="rounded=0;whiteSpace=wrap;html=1;fillColor=none;" vertex="1" parent="40">
                    <mxGeometry x="300" y="80" width="150" height="30" as="geometry"/>
                </mxCell>
                <mxCell id="48" style="edgeStyle=none;html=1;exitX=1;exitY=0.5;exitDx=0;exitDy=0;entryX=0;entryY=0.5;entryDx=0;entryDy=0;" edge="1" parent="40" source="43" target="47">
                    <mxGeometry relative="1" as="geometry"/>
                </mxCell>
                <mxCell id="78" style="edgeStyle=none;html=1;exitX=1;exitY=0.5;exitDx=0;exitDy=0;entryX=0.5;entryY=1;entryDx=0;entryDy=0;" edge="1" parent="40" source="49" target="52">
                    <mxGeometry relative="1" as="geometry"/>
                </mxCell>
                <mxCell id="79" style="edgeStyle=none;html=1;exitX=1;exitY=0.5;exitDx=0;exitDy=0;entryX=0.5;entryY=1;entryDx=0;entryDy=0;" edge="1" parent="40" source="49" target="50">
                    <mxGeometry relative="1" as="geometry"/>
                </mxCell>
                <mxCell id="49" value="UserParticleExtra" style="rounded=0;whiteSpace=wrap;html=1;fillColor=none;" vertex="1" parent="40">
                    <mxGeometry x="20" y="155" width="100" height="30" as="geometry"/>
                </mxCell>
                <mxCell id="50" value="Particle2D{T1, T2}" style="rounded=0;whiteSpace=wrap;html=1;fillColor=none;" vertex="1" parent="40">
                    <mxGeometry x="477" y="20" width="113" height="30" as="geometry"/>
                </mxCell>
                <mxCell id="51" style="edgeStyle=none;html=1;exitX=1;exitY=0.5;exitDx=0;exitDy=0;entryX=0;entryY=0.5;entryDx=0;entryDy=0;" edge="1" parent="40" source="45" target="50">
                    <mxGeometry relative="1" as="geometry"/>
                </mxCell>
                <mxCell id="52" value="Particle3D{T1, T2}" style="rounded=0;whiteSpace=wrap;html=1;fillColor=none;" vertex="1" parent="40">
                    <mxGeometry x="477" y="80" width="113" height="30" as="geometry"/>
                </mxCell>
                <mxCell id="53" style="edgeStyle=none;html=1;exitX=1;exitY=0.5;exitDx=0;exitDy=0;entryX=0;entryY=0.5;entryDx=0;entryDy=0;" edge="1" parent="40" source="47" target="52">
                    <mxGeometry relative="1" as="geometry"/>
                </mxCell>
                <mxCell id="54" style="edgeStyle=none;html=1;exitX=0;exitY=0.5;exitDx=0;exitDy=0;entryX=1;entryY=0.5;entryDx=0;entryDy=0;" edge="1" parent="40" source="55" target="50">
                    <mxGeometry relative="1" as="geometry"/>
                </mxCell>
                <mxCell id="55" value="UserParticle2D" style="rounded=0;whiteSpace=wrap;html=1;fillColor=#60a917;fontColor=#ffffff;strokeColor=#2D7600;" vertex="1" parent="40">
                    <mxGeometry x="630" y="20" width="90" height="30" as="geometry"/>
                </mxCell>
                <mxCell id="56" style="edgeStyle=none;html=1;exitX=0;exitY=0.5;exitDx=0;exitDy=0;entryX=1;entryY=0.5;entryDx=0;entryDy=0;" edge="1" parent="40" source="57" target="52">
                    <mxGeometry relative="1" as="geometry"/>
                </mxCell>
                <mxCell id="57" value="UserParticle3D" style="rounded=0;whiteSpace=wrap;html=1;fillColor=#60a917;fontColor=#ffffff;strokeColor=#2D7600;" vertex="1" parent="40">
                    <mxGeometry x="630" y="80" width="90" height="30" as="geometry"/>
                </mxCell>
                <mxCell id="84" value="" style="group" vertex="1" connectable="0" parent="1">
                    <mxGeometry x="23" y="720" width="805" height="110" as="geometry"/>
                </mxCell>
                <mxCell id="59" value="" style="rounded=0;whiteSpace=wrap;html=1;fillColor=default;container=0;" vertex="1" parent="84">
                    <mxGeometry width="805" height="110" as="geometry"/>
                </mxCell>
                <mxCell id="60" value="AbstractProperty" style="rounded=0;whiteSpace=wrap;html=1;fillColor=none;container=0;" vertex="1" parent="84">
                    <mxGeometry x="20" y="10" width="97" height="30" as="geometry"/>
                </mxCell>
                <mxCell id="61" value="DeviceProperty{T1, T2}" style="rounded=0;whiteSpace=wrap;html=1;fillColor=none;container=0;" vertex="1" parent="84">
                    <mxGeometry x="147" y="10" width="130" height="30" as="geometry"/>
                </mxCell>
                <mxCell id="62" style="edgeStyle=none;html=1;exitX=1;exitY=0.5;exitDx=0;exitDy=0;entryX=0;entryY=0.5;entryDx=0;entryDy=0;" edge="1" parent="84" source="60" target="61">
                    <mxGeometry relative="1" as="geometry"/>
                </mxCell>
                <mxCell id="67" value="UserPropertyExtra" style="rounded=0;whiteSpace=wrap;html=1;fillColor=none;container=0;" vertex="1" parent="84">
                    <mxGeometry x="20" y="70" width="100" height="30" as="geometry"/>
                </mxCell>
                <mxCell id="70" value="Property{T1, T2}" style="rounded=0;whiteSpace=wrap;html=1;fillColor=none;container=0;" vertex="1" parent="84">
                    <mxGeometry x="307" y="10" width="113" height="30" as="geometry"/>
                </mxCell>
                <mxCell id="76" style="edgeStyle=none;html=1;exitX=1;exitY=0.5;exitDx=0;exitDy=0;entryX=0;entryY=0.5;entryDx=0;entryDy=0;" edge="1" parent="84" source="61" target="70">
                    <mxGeometry relative="1" as="geometry"/>
                </mxCell>
                <mxCell id="77" style="edgeStyle=none;html=1;exitX=1;exitY=0.5;exitDx=0;exitDy=0;entryX=0.5;entryY=1;entryDx=0;entryDy=0;" edge="1" parent="84" source="67" target="70">
                    <mxGeometry relative="1" as="geometry"/>
                </mxCell>
                <mxCell id="74" style="edgeStyle=none;html=1;exitX=0;exitY=0.5;exitDx=0;exitDy=0;entryX=1;entryY=0.5;entryDx=0;entryDy=0;" edge="1" parent="84" source="75" target="70">
                    <mxGeometry relative="1" as="geometry"/>
                </mxCell>
                <mxCell id="75" value="UserProperty" style="rounded=0;whiteSpace=wrap;html=1;fillColor=#60a917;fontColor=#ffffff;strokeColor=#2D7600;container=0;" vertex="1" parent="84">
                    <mxGeometry x="457" y="10" width="90" height="30" as="geometry"/>
                </mxCell>
                <mxCell id="85" value="" style="group" vertex="1" connectable="0" parent="1">
                    <mxGeometry x="22" y="850" width="805" height="200" as="geometry"/>
                </mxCell>
                <mxCell id="86" value="" style="rounded=0;whiteSpace=wrap;html=1;fillColor=default;" vertex="1" parent="85">
                    <mxGeometry width="805" height="200" as="geometry"/>
                </mxCell>
                <mxCell id="87" value="AbstractBoundary" style="rounded=0;whiteSpace=wrap;html=1;fillColor=none;" vertex="1" parent="85">
                    <mxGeometry x="20" y="50" width="110" height="30" as="geometry"/>
                </mxCell>
                <mxCell id="88" value="DeviceVBoundary{T1, T2}" style="rounded=0;whiteSpace=wrap;html=1;fillColor=none;" vertex="1" parent="85">
                    <mxGeometry x="160" y="50" width="150" height="30" as="geometry"/>
                </mxCell>
                <mxCell id="89" style="edgeStyle=none;html=1;exitX=1;exitY=0.5;exitDx=0;exitDy=0;entryX=0;entryY=0.5;entryDx=0;entryDy=0;" edge="1" parent="85" source="87" target="88">
                    <mxGeometry relative="1" as="geometry"/>
                </mxCell>
                <mxCell id="90" value="DeviceVBoundary2D{T1, T2}" style="rounded=0;whiteSpace=wrap;html=1;fillColor=none;" vertex="1" parent="85">
                    <mxGeometry x="340" y="20" width="170" height="30" as="geometry"/>
                </mxCell>
                <mxCell id="91" style="edgeStyle=none;html=1;exitX=1;exitY=0.5;exitDx=0;exitDy=0;entryX=0;entryY=0.5;entryDx=0;entryDy=0;" edge="1" parent="85" source="88" target="90">
                    <mxGeometry relative="1" as="geometry"/>
                </mxCell>
                <mxCell id="92" value="DeviceVBoundary3D{T1, T2}" style="rounded=0;whiteSpace=wrap;html=1;fillColor=none;" vertex="1" parent="85">
                    <mxGeometry x="340" y="80" width="170" height="30" as="geometry"/>
                </mxCell>
                <mxCell id="93" style="edgeStyle=none;html=1;exitX=1;exitY=0.5;exitDx=0;exitDy=0;entryX=0;entryY=0.5;entryDx=0;entryDy=0;" edge="1" parent="85" source="88" target="92">
                    <mxGeometry relative="1" as="geometry"/>
                </mxCell>
                <mxCell id="94" style="edgeStyle=none;html=1;exitX=1;exitY=0.5;exitDx=0;exitDy=0;entryX=0.5;entryY=1;entryDx=0;entryDy=0;" edge="1" parent="85" source="96" target="99">
                    <mxGeometry relative="1" as="geometry"/>
                </mxCell>
                <mxCell id="95" style="edgeStyle=none;html=1;exitX=1;exitY=0.5;exitDx=0;exitDy=0;entryX=0.5;entryY=1;entryDx=0;entryDy=0;" edge="1" parent="85" source="96" target="97">
                    <mxGeometry relative="1" as="geometry"/>
                </mxCell>
                <mxCell id="96" value="UserBoundaryExtra" style="rounded=0;whiteSpace=wrap;html=1;fillColor=none;" vertex="1" parent="85">
                    <mxGeometry x="20" y="155" width="120" height="30" as="geometry"/>
                </mxCell>
                <mxCell id="97" value="VBoundary2D{T1, T2}" style="rounded=0;whiteSpace=wrap;html=1;fillColor=none;" vertex="1" parent="85">
                    <mxGeometry x="528" y="20" width="132" height="30" as="geometry"/>
                </mxCell>
                <mxCell id="98" style="edgeStyle=none;html=1;exitX=1;exitY=0.5;exitDx=0;exitDy=0;entryX=0;entryY=0.5;entryDx=0;entryDy=0;" edge="1" parent="85" source="90" target="97">
                    <mxGeometry relative="1" as="geometry"/>
                </mxCell>
                <mxCell id="99" value="VBoundary3D{T1, T2}" style="rounded=0;whiteSpace=wrap;html=1;fillColor=none;" vertex="1" parent="85">
                    <mxGeometry x="528" y="80" width="132" height="30" as="geometry"/>
                </mxCell>
                <mxCell id="100" style="edgeStyle=none;html=1;exitX=1;exitY=0.5;exitDx=0;exitDy=0;entryX=0;entryY=0.5;entryDx=0;entryDy=0;" edge="1" parent="85" source="92" target="99">
                    <mxGeometry relative="1" as="geometry"/>
                </mxCell>
                <mxCell id="101" style="edgeStyle=none;html=1;exitX=0;exitY=0.5;exitDx=0;exitDy=0;entryX=1;entryY=0.5;entryDx=0;entryDy=0;" edge="1" parent="85" source="102" target="97">
                    <mxGeometry relative="1" as="geometry"/>
                </mxCell>
                <mxCell id="102" value="UserVBoundary2D" style="rounded=0;whiteSpace=wrap;html=1;fillColor=#60a917;fontColor=#ffffff;strokeColor=#2D7600;" vertex="1" parent="85">
                    <mxGeometry x="690" y="20" width="108" height="30" as="geometry"/>
                </mxCell>
                <mxCell id="103" style="edgeStyle=none;html=1;exitX=0;exitY=0.5;exitDx=0;exitDy=0;entryX=1;entryY=0.5;entryDx=0;entryDy=0;" edge="1" parent="85" source="104" target="99">
                    <mxGeometry relative="1" as="geometry"/>
                </mxCell>
                <mxCell id="104" value="UserVBoundary3D" style="rounded=0;whiteSpace=wrap;html=1;fillColor=#60a917;fontColor=#ffffff;strokeColor=#2D7600;" vertex="1" parent="85">
                    <mxGeometry x="690" y="80" width="108" height="30" as="geometry"/>
                </mxCell>
            </root>
        </mxGraphModel>
    </diagram>
</mxfile>